<svg width="32" height="32" viewBox="0 0 32 32" fill="none" xmlns="http://www.w3.org/2000/svg">
  <!-- Corps de la vache -->
  <ellipse cx="16" cy="18" rx="10" ry="8" fill="#8B4513" stroke="#654321" stroke-width="1"/>
  
  <!-- Tête de la vache -->
  <ellipse cx="16" cy="8" rx="6" ry="5" fill="#8B4513" stroke="#654321" stroke-width="1"/>
  
  <!-- Oreilles -->
  <ellipse cx="12" cy="6" rx="1.5" ry="2" fill="#654321" stroke="#654321" stroke-width="0.5"/>
  <ellipse cx="20" cy="6" rx="1.5" ry="2" fill="#654321" stroke="#654321" stroke-width="0.5"/>
  
  <!-- Yeux -->
  <circle cx="14" cy="7" r="1" fill="#000000"/>
  <circle cx="18" cy="7" r="1" fill="#000000"/>
  
  <!-- Museau -->
  <ellipse cx="16" cy="10" rx="2" ry="1.5" fill="#654321"/>
  
  <!-- Narines -->
  <circle cx="15" cy="9.5" r="0.3" fill="#000000"/>
  <circle cx="17" cy="9.5" r="0.3" fill="#000000"/>
  
  <!-- Pattes -->
  <rect x="12" y="24" width="2" height="4" fill="#654321"/>
  <rect x="18" y="24" width="2" height="4" fill="#654321"/>
  <rect x="10" y="24" width="2" height="4" fill="#654321"/>
  <rect x="20" y="24" width="2" height="4" fill="#654321"/>
  
  <!-- Taches blanches sur le corps -->
  <ellipse cx="14" cy="16" rx="2" ry="1.5" fill="#FFFFFF" opacity="0.8"/>
  <ellipse cx="18" cy="16" rx="2" ry="1.5" fill="#FFFFFF" opacity="0.8"/>
  <ellipse cx="16" cy="20" rx="2" ry="1.5" fill="#FFFFFF" opacity="0.8"/>
  
  <!-- Queue -->
  <path d="M 24 18 Q 26 16 26 14" stroke="#654321" stroke-width="1.5" fill="none" stroke-linecap="round"/>
  <ellipse cx="26" cy="14" rx="1" ry="0.5" fill="#654321"/>
</svg> 